<svg width="20" height="20" viewBox="0 0 20 20" fill="none" xmlns="http://www.w3.org/2000/svg">
<path d="M5.03846 2.5C4.05271 3.15156 3.20491 3.99086 2.54346 4.97" stroke="white" stroke-linecap="round" stroke-linejoin="round"/>
<path d="M1.18624 8.20898C0.956148 9.367 0.956148 10.559 1.18624 11.717" stroke="white" stroke-linecap="round" stroke-linejoin="round"/>
<path d="M2.5 14.962C3.15156 15.9478 3.99086 16.7956 4.97 17.457" stroke="white" stroke-linecap="round" stroke-linejoin="round"/>
<path d="M8.20947 18.814C9.3649 19.043 10.554 19.043 11.7095 18.814" stroke="white" stroke-linecap="round" stroke-linejoin="round"/>
<path d="M14.9624 17.5C15.9482 16.8485 16.7959 16.0092 17.4574 15.03" stroke="white" stroke-linecap="round" stroke-linejoin="round"/>
<path d="M18.8145 11.791C19.0445 10.6329 19.0445 9.44097 18.8145 8.28296" stroke="white" stroke-linecap="round" stroke-linejoin="round"/>
<path d="M17.5002 5.03803C16.8487 4.05228 16.0094 3.20449 15.0302 2.54303" stroke="white" stroke-linecap="round" stroke-linejoin="round"/>
<path d="M11.7912 1.18602C10.6345 0.949315 9.44256 0.942519 8.28323 1.16602" stroke="white" stroke-linecap="round" stroke-linejoin="round"/>
<path d="M10 6L8 10H12L10 14" stroke="white" stroke-linecap="round" stroke-linejoin="round"/>
<path d="M10 19C12.3869 19 14.6761 18.0518 16.364 16.364C18.0518 14.6761 19 12.3869 19 10C19 7.61305 18.0518 5.32387 16.364 3.63604C14.6761 1.94821 12.3869 1 10 1" stroke="white" stroke-linecap="round" stroke-linejoin="round"/>
</svg>
