<svg width="20" height="20" viewBox="0 0 20 20" fill="none" xmlns="http://www.w3.org/2000/svg">
<path d="M10 10.6429C11.4202 10.6429 12.5714 9.49159 12.5714 8.07143C12.5714 6.65127 11.4202 5.5 10 5.5C8.57984 5.5 7.42857 6.65127 7.42857 8.07143C7.42857 9.49159 8.57984 10.6429 10 10.6429ZM10 10.6429C7.86976 10.6429 6.14286 12.3698 6.14286 14.5M10 10.6429C12.1302 10.6429 13.8571 12.3698 13.8571 14.5M19 10C19 14.9706 14.9706 19 10 19C5.02944 19 1 14.9706 1 10C1 5.02944 5.02944 1 10 1C14.9706 1 19 5.02944 19 10Z" stroke="#0075F6"/>
</svg>
