<svg width="160" height="20" viewBox="0 0 160 20" fill="none" xmlns="http://www.w3.org/2000/svg">
<path d="M101.655 12.3631C101.655 10.8322 101.967 9.49706 102.59 8.35777C103.213 7.20067 104.076 6.31059 105.18 5.68754C106.284 5.04668 107.548 4.72626 108.972 4.72626C110.805 4.72626 112.318 5.1891 113.511 6.11477C114.722 7.02265 115.532 8.30436 115.941 9.9599H111.909C111.695 9.31905 111.33 8.8206 110.814 8.46458C110.316 8.09074 109.693 7.90383 108.945 7.90383C107.877 7.90383 107.031 8.29546 106.408 9.07873C105.785 9.84419 105.474 10.939 105.474 12.3631C105.474 13.7694 105.785 14.8642 106.408 15.6475C107.031 16.4129 107.877 16.7957 108.945 16.7957C110.458 16.7957 111.446 16.1192 111.909 14.7663H115.941C115.532 16.3684 114.722 17.6413 113.511 18.5847C112.301 19.5282 110.787 20 108.972 20C107.548 20 106.284 19.6884 105.18 19.0654C104.076 18.4245 103.213 17.5344 102.59 16.3951C101.967 15.238 101.655 13.894 101.655 12.3631Z" fill="#32C38C"/>
<path d="M117.718 12.3097C117.718 10.8144 118.012 9.48816 118.6 8.33106C119.205 7.17396 120.015 6.28389 121.029 5.66084C122.062 5.03778 123.21 4.72626 124.474 4.72626C125.578 4.72626 126.539 4.94878 127.358 5.39381C128.195 5.83885 128.862 6.3996 129.361 7.07606V4.96658H133.126V19.7596H129.361V17.5967C128.88 18.291 128.212 18.8696 127.358 19.3324C126.521 19.7774 125.551 20 124.447 20C123.201 20 122.062 19.6795 121.029 19.0387C120.015 18.3978 119.205 17.4988 118.6 16.3417C118.012 15.1668 117.718 13.8228 117.718 12.3097ZM129.361 12.3631C129.361 11.4552 129.183 10.6809 128.826 10.04C128.47 9.38135 127.99 8.88291 127.385 8.54468C126.779 8.18865 126.13 8.01064 125.435 8.01064C124.741 8.01064 124.1 8.17975 123.513 8.51798C122.925 8.85621 122.445 9.35465 122.071 10.0133C121.715 10.6542 121.537 11.4196 121.537 12.3097C121.537 13.1998 121.715 13.983 122.071 14.6595C122.445 15.3182 122.925 15.8255 123.513 16.1815C124.118 16.5376 124.759 16.7156 125.435 16.7156C126.13 16.7156 126.779 16.5465 127.385 16.2082C127.99 15.8522 128.47 15.3538 128.826 14.7129C129.183 14.0542 129.361 13.271 129.361 12.3631Z" fill="#32C38C"/>
<path d="M140.515 7.26297C140.996 6.47971 141.619 5.86555 142.384 5.42052C143.167 4.97548 144.057 4.75296 145.054 4.75296V8.67819H144.066C142.891 8.67819 142.001 8.95412 141.396 9.50596C140.809 10.0578 140.515 11.0191 140.515 12.3898V19.7596H136.777V4.96658H140.515V7.26297Z" fill="#32C38C"/>
<path d="M153.233 20C152.023 20 150.937 19.7863 149.975 19.3591C149.014 18.9141 148.249 18.3177 147.679 17.57C147.127 16.8224 146.825 15.9946 146.771 15.0867H150.536C150.607 15.6564 150.883 16.1281 151.364 16.502C151.862 16.8758 152.477 17.0627 153.206 17.0627C153.919 17.0627 154.47 16.9203 154.862 16.6355C155.271 16.3506 155.476 15.9857 155.476 15.5407C155.476 15.06 155.227 14.704 154.729 14.4726C154.248 14.2234 153.474 13.9563 152.405 13.6715C151.302 13.4045 150.394 13.1286 149.682 12.8437C148.988 12.5589 148.382 12.1228 147.866 11.5353C147.368 10.9479 147.118 10.1557 147.118 9.15883C147.118 8.33996 147.35 7.5923 147.813 6.91584C148.293 6.23939 148.97 5.70534 149.842 5.31371C150.732 4.92207 151.773 4.72626 152.966 4.72626C154.729 4.72626 156.135 5.1713 157.185 6.06137C158.235 6.93364 158.814 8.11745 158.921 9.61277H155.343C155.289 9.02532 155.04 8.56248 154.595 8.22425C154.168 7.86822 153.589 7.69021 152.859 7.69021C152.183 7.69021 151.658 7.81482 151.284 8.06404C150.928 8.31326 150.75 8.66039 150.75 9.10543C150.75 9.60387 150.999 9.9866 151.498 10.2536C151.996 10.5028 152.77 10.761 153.821 11.028C154.889 11.295 155.77 11.5709 156.464 11.8558C157.158 12.1406 157.755 12.5856 158.253 13.1909C158.769 13.7783 159.036 14.5616 159.054 15.5407C159.054 16.3951 158.814 17.1606 158.333 17.8371C157.87 18.5135 157.194 19.0476 156.304 19.4392C155.432 19.813 154.408 20 153.233 20Z" fill="#32C38C"/>
<path d="M21.1798 0V19.7597H17.4415V0H21.1798Z" fill="#0075F6"/>
<path d="M40.3923 12.3631C40.3923 10.8322 40.7038 9.49711 41.3269 8.35781C41.9499 7.20071 42.8133 6.31064 43.917 5.68758C45.0207 5.04673 46.2846 4.7263 47.7087 4.7263C49.5423 4.7263 51.0554 5.18914 52.2481 6.11482C53.4586 7.0227 54.2686 8.3044 54.678 9.95994H50.6459C50.4323 9.31909 50.0674 8.82065 49.5512 8.46462C49.0527 8.09079 48.4297 7.90387 47.682 7.90387C46.6139 7.90387 45.7683 8.2955 45.1453 9.07877C44.5222 9.84423 44.2107 10.939 44.2107 12.3631C44.2107 13.7695 44.5222 14.8643 45.1453 15.6475C45.7683 16.413 46.6139 16.7957 47.682 16.7957C49.1951 16.7957 50.1831 16.1193 50.6459 14.7664H54.678C54.2686 16.3685 53.4586 17.6413 52.2481 18.5848C51.0376 19.5283 49.5244 20 47.7087 20C46.2846 20 45.0207 19.6885 43.917 19.0654C42.8133 18.4246 41.9499 17.5345 41.3269 16.3952C40.7038 15.2381 40.3923 13.8941 40.3923 12.3631Z" fill="#0075F6"/>
<path d="M61.7691 8.03738V15.1936C61.7691 15.692 61.8848 16.057 62.1162 16.2884C62.3655 16.502 62.7749 16.6088 63.3445 16.6088H65.0802V19.7597H62.7304C59.5795 19.7597 58.0041 18.2287 58.0041 15.1669V8.03738H56.2417V4.96662H58.0041V1.30841H61.7691V4.96662H65.0802V8.03738H61.7691Z" fill="#0075F6"/>
<path d="M71.5073 7.26302C71.9879 6.47975 72.611 5.8656 73.3764 5.42056C74.1597 4.97552 75.0498 4.753 76.0467 4.753V8.67824H75.0587C73.8838 8.67824 72.9937 8.95416 72.3885 9.50601C71.801 10.0579 71.5073 11.0191 71.5073 12.3899V19.7597H67.769V4.96662H71.5073V7.26302Z" fill="#0075F6"/>
<path d="M85.1334 20C83.7093 20 82.4275 19.6885 81.2882 19.0654C80.149 18.4246 79.25 17.5256 78.5913 16.3685C77.9505 15.2114 77.63 13.8763 77.63 12.3631C77.63 10.85 77.9594 9.51491 78.618 8.35781C79.2945 7.20071 80.2113 6.31064 81.3684 5.68758C82.5255 5.04673 83.8161 4.7263 85.2402 4.7263C86.6643 4.7263 87.9549 5.04673 89.112 5.68758C90.2691 6.31064 91.177 7.20071 91.8356 8.35781C92.5121 9.51491 92.8503 10.85 92.8503 12.3631C92.8503 13.8763 92.5032 15.2114 91.8089 16.3685C91.1325 17.5256 90.2068 18.4246 89.0319 19.0654C87.8748 19.6885 86.5753 20 85.1334 20ZM85.1334 16.7423C85.8098 16.7423 86.4418 16.5821 87.0292 16.2617C87.6345 15.9235 88.1151 15.425 88.4712 14.7664C88.8272 14.1077 89.0052 13.3066 89.0052 12.3631C89.0052 10.9568 88.6314 9.87984 87.8837 9.13217C87.1539 8.36671 86.2549 7.98398 85.1868 7.98398C84.1187 7.98398 83.2197 8.36671 82.4899 9.13217C81.7778 9.87984 81.4218 10.9568 81.4218 12.3631C81.4218 13.7695 81.7689 14.8554 82.4632 15.6208C83.1752 16.3685 84.0653 16.7423 85.1334 16.7423Z" fill="#0075F6"/>
<path fill-rule="evenodd" clip-rule="evenodd" d="M14.6172 13.4162C14.681 13.0063 14.7129 12.5484 14.7129 12.0427C14.7129 10.6008 14.4014 9.32799 13.7784 8.22429C13.1731 7.1028 12.3097 6.23942 11.1882 5.63417C10.0846 5.02892 8.82955 4.7263 7.42323 4.7263C5.96351 4.7263 4.6729 5.03782 3.5514 5.66088C2.42991 6.28393 1.55763 7.174 0.934579 8.3311C0.311527 9.4882 0 10.8322 0 12.3631C0 12.7243 0.0177484 13.0753 0.0532453 13.4162H14.6172ZM9.79973 8.67823C10.4762 9.24788 10.8233 10.0133 10.8411 10.9746H3.81842C3.96084 9.97774 4.34357 9.20338 4.96662 8.65153C5.60748 8.08188 6.39074 7.79706 7.31642 7.79706C8.2955 7.79706 9.12327 8.09078 9.79973 8.67823Z" fill="#0075F6"/>
<path d="M9.98567 15.6523H14.1542C13.6941 16.8366 12.9368 17.8319 11.8825 18.6382C10.672 19.5461 9.18558 20 7.42323 20C5.99911 20 4.7174 19.6885 3.5781 19.0654C2.45661 18.4246 1.57543 17.5256 0.934579 16.3685C0.809866 16.1369 0.697635 15.8981 0.597885 15.6523H4.59084C4.68941 15.7736 4.79687 15.8877 4.91322 15.9947C5.57187 16.5999 6.38184 16.9025 7.34312 16.9025C8.50388 16.9025 9.38473 16.4858 9.98567 15.6523Z" fill="#0075F6"/>
<path fill-rule="evenodd" clip-rule="evenodd" d="M38.529 13.4162C38.5929 13.0063 38.6248 12.5484 38.6248 12.0427C38.6248 10.6008 38.3133 9.32799 37.6902 8.22429C37.085 7.1028 36.2216 6.23942 35.1001 5.63417C33.9964 5.02892 32.7414 4.7263 31.3351 4.7263C29.8753 4.7263 28.5847 5.03782 27.4632 5.66088C26.3417 6.28393 25.4695 7.174 24.8464 8.3311C24.2234 9.4882 23.9118 10.8322 23.9118 12.3631C23.9118 12.7243 23.9296 13.0753 23.9651 13.4162H38.529ZM33.7116 8.67823C34.388 9.24788 34.7352 10.0133 34.753 10.9746H27.7303C27.8727 9.97774 28.2554 9.20338 28.8785 8.65153C29.5193 8.08188 30.3026 7.79706 31.2283 7.79706C32.2073 7.79706 33.0351 8.09078 33.7116 8.67823Z" fill="#0075F6"/>
<path d="M33.8975 15.6523H38.066C37.6059 16.8366 36.8487 17.8319 35.7943 18.6382C34.5838 19.5461 33.0974 20 31.3351 20C29.9109 20 28.6292 19.6885 27.4899 19.0654C26.3684 18.4246 25.4873 17.5256 24.8464 16.3685C24.7217 16.1369 24.6095 15.8981 24.5097 15.6523H28.5027C28.6012 15.7736 28.7087 15.8877 28.8251 15.9947C29.4837 16.5999 30.2937 16.9025 31.255 16.9025C32.4157 16.9025 33.2966 16.4858 33.8975 15.6523Z" fill="#0075F6"/>
<path d="M97.2486 19.9466C96.5722 19.9466 96.0114 19.7419 95.5664 19.3325C95.1391 18.9053 94.9255 18.3801 94.9255 17.7571C94.9255 17.134 95.1391 16.6178 95.5664 16.2083C96.0114 15.7811 96.5722 15.5675 97.2486 15.5675C97.9073 15.5675 98.4502 15.7811 98.8775 16.2083C99.3047 16.6178 99.5183 17.134 99.5183 17.7571C99.5183 18.3801 99.3047 18.9053 98.8775 19.3325C98.4502 19.7419 97.9073 19.9466 97.2486 19.9466Z" fill="#0075F6"/>
</svg>
