<svg width="24" height="24" viewBox="0 0 24 24" fill="none" xmlns="http://www.w3.org/2000/svg">
<path d="M7.03846 4.5C6.05271 5.15156 5.20491 5.99086 4.54346 6.97" stroke="white" stroke-linecap="round" stroke-linejoin="round"/>
<path d="M3.18624 10.209C2.95615 11.367 2.95615 12.559 3.18624 13.717" stroke="white" stroke-linecap="round" stroke-linejoin="round"/>
<path d="M4.5 16.962C5.15156 17.9478 5.99086 18.7956 6.97 19.457" stroke="white" stroke-linecap="round" stroke-linejoin="round"/>
<path d="M10.2095 20.814C11.3649 21.043 12.554 21.043 13.7095 20.814" stroke="white" stroke-linecap="round" stroke-linejoin="round"/>
<path d="M16.9624 19.5C17.9482 18.8485 18.7959 18.0092 19.4574 17.03" stroke="white" stroke-linecap="round" stroke-linejoin="round"/>
<path d="M20.8145 13.791C21.0445 12.6329 21.0445 11.441 20.8145 10.283" stroke="white" stroke-linecap="round" stroke-linejoin="round"/>
<path d="M19.5002 7.03803C18.8487 6.05228 18.0094 5.20449 17.0302 4.54303" stroke="white" stroke-linecap="round" stroke-linejoin="round"/>
<path d="M13.7912 3.18602C12.6345 2.94932 11.4426 2.94252 10.2832 3.16602" stroke="white" stroke-linecap="round" stroke-linejoin="round"/>
<path d="M12 8L10 12H14L12 16" stroke="white" stroke-linecap="round" stroke-linejoin="round"/>
<path d="M12 21C14.3869 21 16.6761 20.0518 18.364 18.364C20.0518 16.6761 21 14.3869 21 12C21 9.61305 20.0518 7.32387 18.364 5.63604C16.6761 3.94821 14.3869 3 12 3" stroke="white" stroke-linecap="round" stroke-linejoin="round"/>
</svg>
